<svg width="30" height="30" viewBox="0 0 30 30" fill="none" xmlns="http://www.w3.org/2000/svg">
<path d="M27.5063 17.3604L29.9684 6.52702C30.1461 5.74483 29.5516 4.99999 28.7495 4.99999H8.29208L7.81469 2.66614C7.69573 2.08442 7.18385 1.66666 6.59005 1.66666H1.25C0.559635 1.66666 0 2.22629 0 2.91666V3.74999C0 4.44035 0.559635 4.99999 1.25 4.99999H4.88974L8.54849 22.8872C7.67318 23.3906 7.08333 24.3345 7.08333 25.4167C7.08333 27.0275 8.38917 28.3333 10 28.3333C11.6108 28.3333 12.9167 27.0275 12.9167 25.4167C12.9167 24.6003 12.5809 23.8628 12.0404 23.3333H22.9595C22.4191 23.8628 22.0833 24.6003 22.0833 25.4167C22.0833 27.0275 23.3892 28.3333 25 28.3333C26.6108 28.3333 27.9167 27.0275 27.9167 25.4167C27.9167 24.2619 27.2454 23.2639 26.2719 22.7914L26.5593 21.527C26.737 20.7448 26.1425 20 25.3404 20H11.3603L11.0194 18.3333H26.2873C26.871 18.3333 27.3769 17.9295 27.5063 17.3604Z" fill="#3F3F3F"/>
</svg>
