<svg width="282" height="36" viewBox="0 0 282 36" fill="none" xmlns="http://www.w3.org/2000/svg">
<path d="M0.764648 28V0.798828H9.57812C12.918 0.798828 15.0951 0.934896 16.1094 1.20703C17.668 1.61523 18.973 2.50586 20.0244 3.87891C21.0758 5.23958 21.6016 7.00228 21.6016 9.16699C21.6016 10.8369 21.2985 12.2409 20.6924 13.3789C20.0863 14.5169 19.3132 15.4137 18.373 16.0693C17.4453 16.7126 16.499 17.1393 15.5342 17.3496C14.223 17.6094 12.3242 17.7393 9.83789 17.7393H6.25684V28H0.764648ZM6.25684 5.40039V13.1191H9.2627C11.4274 13.1191 12.8747 12.9769 13.6045 12.6924C14.3343 12.4079 14.9033 11.9626 15.3115 11.3564C15.7321 10.7503 15.9424 10.0452 15.9424 9.24121C15.9424 8.25163 15.6517 7.43522 15.0703 6.79199C14.4889 6.14876 13.7529 5.74674 12.8623 5.58594C12.2067 5.46224 10.8893 5.40039 8.91016 5.40039H6.25684Z" fill="#3F3F3F"/>
<path d="M31.0645 28H25.8506V8.29492H30.6934V11.0967C31.5221 9.77311 32.2643 8.90104 32.9199 8.48047C33.5879 8.0599 34.3424 7.84961 35.1836 7.84961C36.3711 7.84961 37.5153 8.17741 38.6162 8.83301L37.002 13.3789C36.1237 12.8099 35.3073 12.5254 34.5527 12.5254C33.8229 12.5254 33.2044 12.7295 32.6973 13.1377C32.1901 13.5335 31.7881 14.2572 31.4912 15.3086C31.2067 16.36 31.0645 18.5618 31.0645 21.9141V28Z" fill="#3F3F3F"/>
<path d="M39.6738 17.8691C39.6738 16.1374 40.1006 14.4613 40.9541 12.8408C41.8076 11.2204 43.0137 9.9834 44.5723 9.12988C46.1432 8.27637 47.8936 7.84961 49.8232 7.84961C52.8044 7.84961 55.2474 8.82064 57.1523 10.7627C59.0573 12.6924 60.0098 15.1354 60.0098 18.0918C60.0098 21.0729 59.0449 23.5469 57.1152 25.5137C55.1979 27.4681 52.7796 28.4453 49.8604 28.4453C48.0544 28.4453 46.3288 28.0371 44.6836 27.2207C43.0508 26.4043 41.8076 25.2106 40.9541 23.6396C40.1006 22.0563 39.6738 20.1328 39.6738 17.8691ZM45.0176 18.1475C45.0176 20.1019 45.4814 21.5986 46.4092 22.6377C47.3369 23.6768 48.4811 24.1963 49.8418 24.1963C51.2025 24.1963 52.3405 23.6768 53.2559 22.6377C54.1836 21.5986 54.6475 20.0895 54.6475 18.1104C54.6475 16.1807 54.1836 14.6963 53.2559 13.6572C52.3405 12.6182 51.2025 12.0986 49.8418 12.0986C48.4811 12.0986 47.3369 12.6182 46.4092 13.6572C45.4814 14.6963 45.0176 16.193 45.0176 18.1475Z" fill="#3F3F3F"/>
<path d="M63.6279 29.2988L69.584 30.0225C69.6829 30.7152 69.9118 31.1914 70.2705 31.4512C70.7653 31.8223 71.5446 32.0078 72.6084 32.0078C73.9691 32.0078 74.9896 31.8037 75.6699 31.3955C76.1276 31.1234 76.474 30.6842 76.709 30.0781C76.8698 29.6452 76.9502 28.8473 76.9502 27.6846V24.8086C75.3916 26.9362 73.4248 28 71.0498 28C68.4027 28 66.306 26.8805 64.7598 24.6416C63.5475 22.8727 62.9414 20.6709 62.9414 18.0361C62.9414 14.7334 63.7331 12.21 65.3164 10.4658C66.9121 8.72168 68.8913 7.84961 71.2539 7.84961C73.6908 7.84961 75.7008 8.9196 77.2842 11.0596V8.29492H82.1641V25.9775C82.1641 28.3031 81.9723 30.041 81.5889 31.1914C81.2054 32.3418 80.6673 33.2448 79.9746 33.9004C79.2819 34.556 78.3542 35.0693 77.1914 35.4404C76.041 35.8115 74.5814 35.9971 72.8125 35.9971C69.4727 35.9971 67.1038 35.4219 65.7061 34.2715C64.3083 33.1335 63.6094 31.6862 63.6094 29.9297C63.6094 29.7565 63.6156 29.5462 63.6279 29.2988ZM68.2852 17.7393C68.2852 19.8298 68.6872 21.3636 69.4912 22.3408C70.3076 23.3057 71.3096 23.7881 72.4971 23.7881C73.7712 23.7881 74.8473 23.2933 75.7256 22.3037C76.6038 21.3018 77.043 19.8236 77.043 17.8691C77.043 15.8281 76.6224 14.3128 75.7812 13.3232C74.9401 12.3337 73.8763 11.8389 72.5898 11.8389C71.3405 11.8389 70.3076 12.3275 69.4912 13.3047C68.6872 14.2695 68.2852 15.7477 68.2852 17.7393Z" fill="#3F3F3F"/>
<path d="M92.332 28H87.1182V8.29492H91.9609V11.0967C92.7897 9.77311 93.5319 8.90104 94.1875 8.48047C94.8555 8.0599 95.61 7.84961 96.4512 7.84961C97.6387 7.84961 98.7829 8.17741 99.8838 8.83301L98.2695 13.3789C97.3913 12.8099 96.5749 12.5254 95.8203 12.5254C95.0905 12.5254 94.472 12.7295 93.9648 13.1377C93.4577 13.5335 93.0557 14.2572 92.7588 15.3086C92.4743 16.36 92.332 18.5618 92.332 21.9141V28Z" fill="#3F3F3F"/>
<path d="M106.044 14.3066L101.312 13.4531C101.844 11.5482 102.76 10.138 104.059 9.22266C105.357 8.30729 107.287 7.84961 109.848 7.84961C112.173 7.84961 113.905 8.12793 115.043 8.68457C116.181 9.22884 116.979 9.92773 117.437 10.7812C117.907 11.6224 118.142 13.1748 118.142 15.4385L118.086 21.5244C118.086 23.2562 118.166 24.5365 118.327 25.3652C118.5 26.1816 118.816 27.0599 119.273 28H114.115C113.979 27.6536 113.812 27.1403 113.614 26.46C113.528 26.1507 113.466 25.9466 113.429 25.8477C112.538 26.7135 111.586 27.363 110.571 27.7959C109.557 28.2288 108.475 28.4453 107.324 28.4453C105.296 28.4453 103.694 27.8949 102.519 26.7939C101.356 25.693 100.774 24.3014 100.774 22.6191C100.774 21.5059 101.04 20.5163 101.572 19.6504C102.104 18.7721 102.846 18.1042 103.799 17.6465C104.764 17.1764 106.149 16.7682 107.955 16.4219C110.392 15.9642 112.08 15.5374 113.021 15.1416V14.6221C113.021 13.6201 112.773 12.9089 112.278 12.4883C111.784 12.0553 110.85 11.8389 109.477 11.8389C108.549 11.8389 107.825 12.0244 107.306 12.3955C106.786 12.7542 106.366 13.3913 106.044 14.3066ZM113.021 18.5371C112.353 18.7598 111.295 19.0257 109.848 19.335C108.4 19.6442 107.454 19.9473 107.009 20.2441C106.328 20.7266 105.988 21.3389 105.988 22.0811C105.988 22.8109 106.26 23.4417 106.805 23.9736C107.349 24.5055 108.042 24.7715 108.883 24.7715C109.823 24.7715 110.72 24.4622 111.573 23.8438C112.204 23.3737 112.618 22.7985 112.816 22.1182C112.952 21.6729 113.021 20.8255 113.021 19.5762V18.5371Z" fill="#3F3F3F"/>
<path d="M132.336 8.29492V12.4512H128.773V20.3926C128.773 22.0007 128.804 22.9408 128.866 23.2129C128.94 23.4727 129.095 23.6891 129.33 23.8623C129.577 24.0355 129.874 24.1221 130.221 24.1221C130.703 24.1221 131.402 23.9551 132.317 23.6211L132.763 27.666C131.55 28.1855 130.177 28.4453 128.644 28.4453C127.703 28.4453 126.856 28.2907 126.102 27.9814C125.347 27.6598 124.79 27.2516 124.432 26.7568C124.085 26.2497 123.844 25.5693 123.708 24.7158C123.597 24.1097 123.541 22.8851 123.541 21.042V12.4512H121.147V8.29492H123.541V4.37988L128.773 1.33691V8.29492H132.336Z" fill="#3F3F3F"/>
<path d="M135.954 5.62305V0.798828H141.168V5.62305H135.954ZM135.954 28V8.29492H141.168V28H135.954Z" fill="#3F3F3F"/>
<path d="M151.948 28L144.007 8.29492H149.48L153.191 18.3516L154.268 21.71C154.552 20.8564 154.731 20.2936 154.806 20.0215C154.979 19.4648 155.164 18.9082 155.362 18.3516L159.11 8.29492H164.473L156.643 28H151.948Z" fill="#3F3F3F"/>
<path d="M179.094 21.7285L184.289 22.6006C183.621 24.5055 182.563 25.959 181.116 26.9609C179.681 27.9505 177.882 28.4453 175.717 28.4453C172.29 28.4453 169.755 27.3258 168.109 25.0869C166.811 23.2933 166.161 21.0296 166.161 18.2959C166.161 15.0303 167.015 12.4759 168.722 10.6328C170.429 8.77734 172.587 7.84961 175.197 7.84961C178.129 7.84961 180.442 8.82064 182.137 10.7627C183.831 12.6924 184.642 15.6549 184.567 19.6504H171.505C171.542 21.1966 171.963 22.4027 172.767 23.2686C173.571 24.1221 174.573 24.5488 175.772 24.5488C176.589 24.5488 177.275 24.3262 177.832 23.8809C178.389 23.4355 178.809 22.7181 179.094 21.7285ZM179.391 16.459C179.354 14.9499 178.964 13.8057 178.222 13.0264C177.479 12.2347 176.576 11.8389 175.513 11.8389C174.375 11.8389 173.435 12.2533 172.692 13.082C171.95 13.9108 171.585 15.0365 171.598 16.459H179.391Z" fill="#3F3F3F"/>
<path d="M203.766 17.5H205.734V26.3047L205.536 28H203.766V17.5ZM210.417 24.2266V24.3701C210.417 24.9215 210.358 25.4274 210.239 25.8877C210.125 26.348 209.948 26.7467 209.706 27.084C209.465 27.4167 209.164 27.6764 208.804 27.8633C208.448 28.0456 208.029 28.1367 207.546 28.1367C207.095 28.1367 206.703 28.0456 206.37 27.8633C206.042 27.681 205.766 27.4235 205.543 27.0908C205.32 26.7581 205.14 26.3685 205.003 25.9219C204.866 25.4753 204.764 24.9876 204.695 24.459V24.1445C204.764 23.6159 204.866 23.1283 205.003 22.6816C205.14 22.235 205.32 21.8454 205.543 21.5127C205.766 21.18 206.042 20.9225 206.37 20.7402C206.698 20.5579 207.086 20.4668 207.532 20.4668C208.02 20.4668 208.444 20.5602 208.804 20.7471C209.168 20.9294 209.469 21.1891 209.706 21.5264C209.948 21.859 210.125 22.2555 210.239 22.7158C210.358 23.1715 210.417 23.6751 210.417 24.2266ZM208.448 24.3701V24.2266C208.448 23.9258 208.425 23.6432 208.38 23.3789C208.339 23.11 208.266 22.8753 208.161 22.6748C208.056 22.4697 207.913 22.3079 207.73 22.1895C207.553 22.071 207.323 22.0117 207.04 22.0117C206.771 22.0117 206.543 22.0573 206.356 22.1484C206.17 22.2396 206.015 22.3672 205.892 22.5312C205.773 22.6953 205.684 22.8913 205.625 23.1191C205.566 23.3424 205.529 23.5885 205.516 23.8574V24.7529C205.529 25.113 205.589 25.432 205.693 25.71C205.803 25.9834 205.967 26.1999 206.186 26.3594C206.409 26.5143 206.698 26.5918 207.054 26.5918C207.332 26.5918 207.562 26.5371 207.744 26.4277C207.926 26.3184 208.068 26.1634 208.168 25.9629C208.273 25.7624 208.346 25.5277 208.387 25.2588C208.428 24.9854 208.448 24.6891 208.448 24.3701Z" fill="#3F3F3F"/>
<path d="M213.753 27.166L215.715 20.6035H217.827L214.854 29.1143C214.79 29.3011 214.703 29.5016 214.594 29.7158C214.489 29.93 214.345 30.1328 214.163 30.3242C213.985 30.5202 213.76 30.6797 213.486 30.8027C213.217 30.9258 212.887 30.9873 212.495 30.9873C212.308 30.9873 212.156 30.9759 212.037 30.9531C211.919 30.9303 211.777 30.8984 211.613 30.8574V29.415C211.663 29.415 211.716 29.415 211.771 29.415C211.825 29.4196 211.878 29.4219 211.928 29.4219C212.188 29.4219 212.399 29.3923 212.563 29.333C212.728 29.2738 212.86 29.1826 212.96 29.0596C213.06 28.9411 213.14 28.7861 213.199 28.5947L213.753 27.166ZM212.933 20.6035L214.539 25.9629L214.819 28.0479L213.479 28.1914L210.82 20.6035H212.933Z" fill="#3F3F3F"/>
<path d="M226.304 18.0469V28H224.26V18.0469H226.304ZM229.366 18.0469V19.6533H221.245V18.0469H229.366Z" fill="#3F3F3F"/>
<path d="M237.214 26.4004V28H231.916V26.4004H237.214ZM232.586 18.0469V28H230.535V18.0469H232.586ZM236.523 22.1006V23.6592H231.916V22.1006H236.523ZM237.207 18.0469V19.6533H231.916V18.0469H237.207Z" fill="#3F3F3F"/>
<path d="M238.41 18.0469H242.122C242.883 18.0469 243.537 18.1608 244.084 18.3887C244.635 18.6165 245.059 18.9538 245.355 19.4004C245.652 19.847 245.8 20.3962 245.8 21.0479C245.8 21.5811 245.709 22.0391 245.526 22.4219C245.349 22.8001 245.096 23.1169 244.768 23.3721C244.444 23.6227 244.063 23.8232 243.626 23.9736L242.977 24.3154H239.75L239.736 22.7158H242.136C242.496 22.7158 242.794 22.652 243.031 22.5244C243.268 22.3968 243.446 22.2191 243.564 21.9912C243.688 21.7633 243.749 21.499 243.749 21.1982C243.749 20.8792 243.69 20.6035 243.571 20.3711C243.453 20.1387 243.273 19.9609 243.031 19.8379C242.79 19.7148 242.487 19.6533 242.122 19.6533H240.461V28H238.41V18.0469ZM243.975 28L241.705 23.5635L243.872 23.5498L246.169 27.9043V28H243.975Z" fill="#3F3F3F"/>
<path d="M247.379 18.0469H251.091C251.852 18.0469 252.506 18.1608 253.053 18.3887C253.604 18.6165 254.028 18.9538 254.324 19.4004C254.62 19.847 254.769 20.3962 254.769 21.0479C254.769 21.5811 254.677 22.0391 254.495 22.4219C254.317 22.8001 254.064 23.1169 253.736 23.3721C253.413 23.6227 253.032 23.8232 252.595 23.9736L251.945 24.3154H248.719L248.705 22.7158H251.104C251.465 22.7158 251.763 22.652 252 22.5244C252.237 22.3968 252.415 22.2191 252.533 21.9912C252.656 21.7633 252.718 21.499 252.718 21.1982C252.718 20.8792 252.659 20.6035 252.54 20.3711C252.422 20.1387 252.242 19.9609 252 19.8379C251.758 19.7148 251.455 19.6533 251.091 19.6533H249.43V28H247.379V18.0469ZM252.943 28L250.674 23.5635L252.841 23.5498L255.138 27.9043V28H252.943Z" fill="#3F3F3F"/>
<path d="M260.395 19.749L257.688 28H255.507L259.205 18.0469H260.593L260.395 19.749ZM262.644 28L259.93 19.749L259.711 18.0469H261.112L264.831 28H262.644ZM262.521 24.2949V25.9014H257.264V24.2949H262.521Z" fill="#3F3F3F"/>
<path d="M265.754 18.0469H269.466C270.227 18.0469 270.881 18.1608 271.428 18.3887C271.979 18.6165 272.403 18.9538 272.699 19.4004C272.995 19.847 273.144 20.3962 273.144 21.0479C273.144 21.5811 273.052 22.0391 272.87 22.4219C272.692 22.8001 272.439 23.1169 272.111 23.3721C271.788 23.6227 271.407 23.8232 270.97 23.9736L270.32 24.3154H267.094L267.08 22.7158H269.479C269.84 22.7158 270.138 22.652 270.375 22.5244C270.612 22.3968 270.79 22.2191 270.908 21.9912C271.031 21.7633 271.093 21.499 271.093 21.1982C271.093 20.8792 271.034 20.6035 270.915 20.3711C270.797 20.1387 270.617 19.9609 270.375 19.8379C270.133 19.7148 269.83 19.6533 269.466 19.6533H267.805V28H265.754V18.0469ZM271.318 28L269.049 23.5635L271.216 23.5498L273.513 27.9043V28H271.318Z" fill="#3F3F3F"/>
<path d="M278.763 18.0469V28H276.719V18.0469H278.763ZM281.825 18.0469V19.6533H273.704V18.0469H281.825Z" fill="#3F3F3F"/>
</svg>
