<svg width="24" height="24" viewBox="0 0 24 24" fill="none" xmlns="http://www.w3.org/2000/svg">
<path d="M11.5245 3.08156C11.6741 2.6209 12.3259 2.62091 12.4755 3.08156L13.9941 7.75532C14.1949 8.37336 14.7709 8.7918 15.4207 8.7918H20.335C20.8194 8.7918 21.0207 9.4116 20.6289 9.6963L16.6531 12.5848C16.1274 12.9668 15.9074 13.6439 16.1082 14.2619L17.6268 18.9357C17.7765 19.3963 17.2493 19.7794 16.8574 19.4947L12.8817 16.6061C12.3559 16.2242 11.6441 16.2242 11.1183 16.6061L7.14258 19.4947C6.75073 19.7794 6.22349 19.3963 6.37316 18.9357L7.89176 14.2619C8.09257 13.6439 7.87258 12.9668 7.34685 12.5848L3.37111 9.6963C2.97926 9.4116 3.18064 8.7918 3.66501 8.7918H8.57929C9.22913 8.7918 9.80506 8.37336 10.0059 7.75532L11.5245 3.08156Z" stroke="#3F3F3F"/>
<mask id="path-2-inside-1_21_59" fill="white">
<path fill-rule="evenodd" clip-rule="evenodd" d="M12 2.23608C11.5993 2.23608 11.1986 2.46641 11.0489 2.92707L9.53034 7.60083C9.39647 8.01285 9.01251 8.29181 8.57929 8.29181H3.665C2.69628 8.29181 2.2935 9.53143 3.07722 10.1008L7.05296 12.9894C7.40344 13.244 7.5501 13.6954 7.41623 14.1074L5.89763 18.7812C5.59828 19.7025 6.65276 20.4686 7.43647 19.8992L11.4122 17.0107C11.5875 16.8833 11.7937 16.8197 12 16.8197V2.23608Z"/>
</mask>
<path fill-rule="evenodd" clip-rule="evenodd" d="M12 2.23608C11.5993 2.23608 11.1986 2.46641 11.0489 2.92707L9.53034 7.60083C9.39647 8.01285 9.01251 8.29181 8.57929 8.29181H3.665C2.69628 8.29181 2.2935 9.53143 3.07722 10.1008L7.05296 12.9894C7.40344 13.244 7.5501 13.6954 7.41623 14.1074L5.89763 18.7812C5.59828 19.7025 6.65276 20.4686 7.43647 19.8992L11.4122 17.0107C11.5875 16.8833 11.7937 16.8197 12 16.8197V2.23608Z" fill="#3F3F3F"/>
<path d="M11.0489 2.92707L12 3.23608L12 3.23608L11.0489 2.92707ZM12 2.23608H13V1.23608L12 1.23608V2.23608ZM9.53034 7.60083L10.4814 7.90985V7.90985L9.53034 7.60083ZM3.07722 10.1008L3.665 9.29181H3.665L3.07722 10.1008ZM7.05296 12.9894L6.46517 13.7984L6.46517 13.7984L7.05296 12.9894ZM7.41623 14.1074L6.46517 13.7984V13.7984L7.41623 14.1074ZM5.89763 18.7812L6.84869 19.0902L5.89763 18.7812ZM7.43647 19.8992L6.84869 19.0902L6.84869 19.0902L7.43647 19.8992ZM11.4122 17.0107L10.8244 16.2016L10.8244 16.2016L11.4122 17.0107ZM12 16.8197V17.8197H13V16.8197H12ZM12 3.23608C12.0022 3.22935 12.0039 3.22575 12.0045 3.22458C12.0051 3.22341 12.005 3.22384 12.0039 3.22532C12.0013 3.22876 11.9975 3.23246 11.9935 3.23515C11.99 3.23756 11.9885 3.23778 11.99 3.23733C11.9917 3.23681 11.9952 3.23608 12 3.23608L12 1.23608C11.2167 1.23608 10.3964 1.69922 10.0979 2.61805L12 3.23608ZM10.4814 7.90985L12 3.23608L10.0979 2.61805L8.57929 7.29181L10.4814 7.90985ZM8.57929 9.29181C9.44574 9.29181 10.2137 8.73389 10.4814 7.90985L8.57929 7.29181H8.57929V9.29181ZM3.665 9.29181H8.57929V7.29181H3.665V9.29181ZM3.665 9.29181L3.665 9.29181V7.29181C1.72755 7.29181 0.922006 9.77104 2.48943 10.9098L3.665 9.29181ZM7.64074 12.1804L3.665 9.29181L2.48943 10.9098L6.46517 13.7984L7.64074 12.1804ZM8.36728 14.4164C8.63503 13.5924 8.34172 12.6896 7.64074 12.1804L6.46517 13.7984L6.46517 13.7984L8.36728 14.4164ZM6.84869 19.0902L8.36728 14.4164L6.46517 13.7984L4.94657 18.4722L6.84869 19.0902ZM6.84869 19.0902H6.84869L4.94657 18.4722C4.34787 20.3148 6.45683 21.847 8.02426 20.7082L6.84869 19.0902ZM10.8244 16.2016L6.84869 19.0902L8.02426 20.7082L12 17.8197L10.8244 16.2016ZM12 15.8197C11.5879 15.8197 11.1748 15.9471 10.8244 16.2016L12 17.8197L12 17.8197V15.8197ZM13 16.8197V2.23608H11V16.8197H13Z" fill="#3F3F3F" mask="url(#path-2-inside-1_21_59)"/>
</svg>
