<svg width="571" height="192" viewBox="0 0 571 192" fill="none" xmlns="http://www.w3.org/2000/svg">
<path fill-rule="evenodd" clip-rule="evenodd" d="M32.97 33.054H25.83L23.226 26.754H9.576L6.972 33.054H0L13.104 3.65399H19.824L32.97 33.054ZM16.422 10.332L11.76 21.588H21.084L16.422 10.332ZM41.8162 13.104C43.5802 11.172 46.2262 10.122 49.2923 10.122C54.6263 10.122 58.6583 13.23 58.6583 20.118V33.054H52.1063V21.126C52.1063 17.472 50.4263 15.792 47.5283 15.792C44.3783 15.792 42.1103 17.724 42.1103 21.882V33.054H35.5583V10.458H41.8162V13.104ZM63.9673 12.852C66.4453 11.088 70.0993 10.122 73.7113 10.122C80.5993 10.122 84.5893 13.314 84.5893 20.16V33.054H78.4573V30.24C77.2393 32.298 74.8873 33.39 71.5693 33.39C66.2773 33.39 63.1273 30.45 63.1273 26.544C63.1273 22.554 65.9413 19.782 72.8293 19.782H78.0373C78.0373 16.968 76.3573 15.33 72.8293 15.33C70.4353 15.33 67.9573 16.128 66.3193 17.43L63.9673 12.852ZM69.5113 26.25C69.5113 27.888 70.8973 28.98 73.2073 28.98C75.3913 28.98 77.2813 27.972 78.0373 25.914V23.604H73.5433C70.4773 23.604 69.5113 24.738 69.5113 26.25ZM97.0712 33.054H90.5192V1.88999H97.0712V33.054ZM112.896 25.788L119.28 10.458H125.58L115.374 34.44C113.19 39.9 110.082 41.538 106.008 41.538C103.698 41.538 101.178 40.782 99.708 39.48L102.102 34.818C103.11 35.7 104.496 36.246 105.798 36.246C107.604 36.246 108.612 35.448 109.494 33.432L109.578 33.222L99.792 10.458H106.554L112.896 25.788ZM146.071 14.406L134.563 28.014H146.449V33.054H126.289V29.106L137.797 15.498H126.583V10.458H146.071V14.406ZM160.735 10.122C167.371 10.122 172.495 14.574 172.495 21.84C172.495 22.197 172.453 22.6595 172.413 23.0929C172.397 23.2713 172.381 23.4448 172.369 23.604H155.275C155.905 26.418 158.299 28.14 161.743 28.14C164.137 28.14 165.859 27.426 167.413 25.956L170.899 29.736C168.799 32.13 165.649 33.39 161.575 33.39C153.763 33.39 148.681 28.476 148.681 21.756C148.681 14.994 153.847 10.122 160.735 10.122ZM166.321 19.782C165.859 16.926 163.717 15.078 160.777 15.078C157.795 15.078 155.653 16.884 155.191 19.782H166.321ZM199.126 10.122C205.762 10.122 210.886 14.574 210.886 21.84C210.886 22.197 210.843 22.6595 210.804 23.0929C210.788 23.2713 210.772 23.4448 210.76 23.604H193.666C194.296 26.418 196.69 28.14 200.134 28.14C202.528 28.14 204.25 27.426 205.804 25.956L209.29 29.736C207.19 32.13 204.04 33.39 199.966 33.39C192.154 33.39 187.072 28.476 187.072 21.756C187.072 14.994 192.238 10.122 199.126 10.122ZM204.712 19.782C204.25 16.926 202.108 15.078 199.168 15.078C196.186 15.078 194.044 16.884 193.582 19.782H204.712ZM224.498 25.83L230.966 10.458H237.266L227.732 33.054H220.97L211.478 10.458H218.24L224.498 25.83ZM249.698 10.122C256.334 10.122 261.458 14.574 261.458 21.84C261.458 22.197 261.416 22.6594 261.376 23.0928C261.36 23.2712 261.344 23.4448 261.332 23.604H244.238C244.868 26.418 247.262 28.14 250.706 28.14C253.1 28.14 254.822 27.426 256.376 25.956L259.862 29.736C257.762 32.13 254.612 33.39 250.538 33.39C242.726 33.39 237.644 28.476 237.644 21.756C237.644 14.994 242.81 10.122 249.698 10.122ZM255.284 19.782C254.822 16.926 252.68 15.078 249.74 15.078C246.758 15.078 244.616 16.884 244.154 19.782H255.284ZM272.078 10.458V13.44C273.674 11.256 276.362 10.122 279.848 10.122V16.17C279.754 16.1628 279.664 16.1556 279.577 16.1486C279.155 16.1148 278.796 16.086 278.378 16.086C274.766 16.086 272.372 18.06 272.372 22.386V33.054H265.82V10.458H272.078ZM294.267 25.788L300.651 10.458H306.951L296.745 34.44C294.561 39.9 291.453 41.538 287.379 41.538C285.069 41.538 282.549 40.782 281.079 39.48L283.473 34.818C284.481 35.7 285.867 36.246 287.169 36.246C288.975 36.246 289.983 35.448 290.865 33.432L290.949 33.222L281.163 10.458H287.925L294.267 25.788ZM320.404 28.182C321.37 28.182 322.336 27.888 323.05 27.342L324.814 31.962C323.47 32.928 321.496 33.39 319.48 33.39C314.146 33.39 311.038 30.66 311.038 25.284V16.002H307.552V10.962H311.038V5.45999H317.59V10.962H323.218V16.002H317.59V25.2C317.59 27.132 318.64 28.182 320.404 28.182ZM335.044 12.81C336.808 11.046 339.328 10.122 342.226 10.122C347.56 10.122 351.592 13.23 351.592 20.118V33.054H345.04V21.126C345.04 17.472 343.36 15.792 340.462 15.792C337.312 15.792 335.044 17.724 335.044 21.882V33.054H328.492V1.88999H335.044V12.81ZM364.881 3.52799C364.881 5.71199 363.243 7.30799 360.807 7.30799C358.371 7.30799 356.733 5.71199 356.733 3.65399C356.733 1.59599 358.371 -1.52588e-05 360.807 -1.52588e-05C363.243 -1.52588e-05 364.881 1.51199 364.881 3.52799ZM376.422 13.104C378.186 11.172 380.832 10.122 383.898 10.122C389.232 10.122 393.264 13.23 393.264 20.118V33.054H386.712V21.126C386.712 17.472 385.032 15.792 382.134 15.792C378.984 15.792 376.716 17.724 376.716 21.882V33.054H370.164V10.458H376.422V13.104ZM416.543 13.356V10.458H422.759V29.274C422.759 37.674 418.223 41.538 410.075 41.538C405.791 41.538 401.633 40.488 398.987 38.43L401.591 33.726C403.523 35.28 406.673 36.288 409.571 36.288C414.191 36.288 416.207 34.188 416.207 30.114V29.148C414.485 31.038 412.007 31.962 409.067 31.962C402.809 31.962 397.769 27.636 397.769 21.042C397.769 14.448 402.809 10.122 409.067 10.122C412.217 10.122 414.821 11.172 416.543 13.356ZM364.083 33.054H357.531V10.458H364.083V33.054ZM404.405 21.042C404.405 24.36 406.925 26.586 410.369 26.586C413.813 26.586 416.291 24.36 416.291 21.042C416.291 17.724 413.813 15.498 410.369 15.498C406.925 15.498 404.405 17.724 404.405 21.042ZM440.122 12.852C442.6 11.088 446.254 10.122 449.866 10.122C456.754 10.122 460.744 13.314 460.744 20.16V33.054H454.612V30.24C453.394 32.298 451.042 33.39 447.724 33.39C442.432 33.39 439.282 30.45 439.282 26.544C439.282 22.554 442.096 19.782 448.984 19.782H454.192C454.192 16.968 452.512 15.33 448.984 15.33C446.59 15.33 444.112 16.128 442.474 17.43L440.122 12.852ZM445.666 26.25C445.666 27.888 447.052 28.98 449.362 28.98C451.546 28.98 453.436 27.972 454.192 25.914V23.604H449.698C446.632 23.604 445.666 24.738 445.666 26.25ZM472.931 13.104C474.695 11.172 477.341 10.122 480.407 10.122C485.741 10.122 489.773 13.23 489.773 20.118V33.054H483.221V21.126C483.221 17.472 481.541 15.792 478.643 15.792C475.493 15.792 473.225 17.724 473.225 21.882V33.054H466.673V10.458H472.931V13.104ZM512.423 12.852V1.88999H518.975V33.054H512.717V30.45C511.079 32.424 508.685 33.39 505.661 33.39C499.277 33.39 494.363 28.854 494.363 21.756C494.363 14.658 499.277 10.122 505.661 10.122C508.433 10.122 510.785 11.004 512.423 12.852ZM500.999 21.756C500.999 25.662 503.519 28.014 506.795 28.014C510.029 28.014 512.549 25.662 512.549 21.756C512.549 17.85 510.029 15.498 506.795 15.498C503.519 15.498 500.999 17.85 500.999 21.756ZM13.566 96.182C14.532 96.182 15.498 95.888 16.212 95.342L17.976 99.962C16.632 100.928 14.658 101.39 12.642 101.39C7.308 101.39 4.2 98.66 4.2 93.284V84.002H0.714V78.962H4.2V73.46H10.752V78.962H16.38V84.002H10.752V93.2C10.752 95.132 11.802 96.182 13.566 96.182ZM27.912 78.458V81.44C29.508 79.256 32.196 78.122 35.682 78.122V84.17C35.5883 84.1628 35.4984 84.1556 35.4111 84.1486C34.9894 84.1148 34.6295 84.086 34.212 84.086C30.6 84.086 28.206 86.06 28.206 90.386V101.054H21.654V78.458H27.912ZM38.8247 80.852C41.3027 79.088 44.9567 78.122 48.5687 78.122C55.4567 78.122 59.4467 81.314 59.4467 88.16V101.054H53.3147V98.24C52.0967 100.298 49.7447 101.39 46.4267 101.39C41.1347 101.39 37.9847 98.45 37.9847 94.544C37.9847 90.554 40.7987 87.782 47.6867 87.782H52.8947C52.8947 84.968 51.2147 83.33 47.6867 83.33C45.2927 83.33 42.8147 84.128 41.1767 85.43L38.8247 80.852ZM44.3687 94.25C44.3687 95.888 45.7547 96.98 48.0647 96.98C50.2487 96.98 52.1387 95.972 52.8947 93.914V91.604H48.4007C45.3347 91.604 44.3687 92.738 44.3687 94.25ZM71.6346 81.104C73.3986 79.172 76.0446 78.122 79.1106 78.122C84.4446 78.122 88.4766 81.23 88.4766 88.118V101.054H81.9246V89.126C81.9246 85.472 80.2446 83.792 77.3466 83.792C74.1966 83.792 71.9286 85.724 71.9286 89.882V101.054H65.3766V78.458H71.6346V81.104ZM112.686 94.208C112.686 98.408 108.78 101.39 102.018 101.39C98.1957 101.39 94.3317 100.34 92.2317 98.954L94.4157 94.25C96.4317 95.552 99.4977 96.434 102.27 96.434C105.294 96.434 106.428 95.636 106.428 94.376C106.428 92.934 104.35 92.63 101.816 92.2592C97.8542 91.6796 92.7777 90.9369 92.7777 85.43C92.7777 81.146 96.6417 78.122 103.236 78.122C106.344 78.122 109.788 78.836 111.93 80.096L109.746 84.758C107.52 83.498 105.294 83.078 103.236 83.078C100.296 83.078 99.0357 84.002 99.0357 85.178C99.0357 86.7125 101.189 87.0481 103.784 87.4527C107.725 88.0669 112.686 88.8401 112.686 94.208ZM123.28 101.054H116.728V69.89H123.28V101.054ZM128.731 80.852C131.209 79.088 134.863 78.122 138.475 78.122C145.363 78.122 149.353 81.314 149.353 88.16V101.054H143.221V98.24C142.003 100.298 139.651 101.39 136.333 101.39C131.041 101.39 127.891 98.45 127.891 94.544C127.891 90.554 130.705 87.782 137.593 87.782H142.801C142.801 84.968 141.121 83.33 137.593 83.33C135.199 83.33 132.721 84.128 131.083 85.43L128.731 80.852ZM134.275 94.25C134.275 95.888 135.661 96.98 137.971 96.98C140.155 96.98 142.045 95.972 142.801 93.914V91.604H138.307C135.241 91.604 134.275 92.738 134.275 94.25ZM165.447 96.182C166.413 96.182 167.379 95.888 168.093 95.342L169.857 99.962C168.513 100.928 166.539 101.39 164.523 101.39C159.189 101.39 156.081 98.66 156.081 93.284V84.002H152.595V78.962H156.081V73.46H162.633V78.962H168.261V84.002H162.633V93.2C162.633 95.132 163.683 96.182 165.447 96.182ZM183.212 78.122C189.848 78.122 194.972 82.574 194.972 89.84C194.972 90.197 194.929 90.6595 194.89 91.0929C194.874 91.2713 194.858 91.4448 194.846 91.604H177.752C178.382 94.418 180.776 96.14 184.22 96.14C186.614 96.14 188.336 95.426 189.89 93.956L193.376 97.736C191.276 100.13 188.126 101.39 184.052 101.39C176.24 101.39 171.158 96.476 171.158 89.756C171.158 82.994 176.324 78.122 183.212 78.122ZM188.798 87.782C188.336 84.926 186.194 83.078 183.254 83.078C180.272 83.078 178.13 84.884 177.668 87.782H188.798ZM217.486 81.104C219.25 79.172 221.896 78.122 224.962 78.122C230.296 78.122 234.328 81.23 234.328 88.118V101.054H227.776V89.126C227.776 85.472 226.096 83.792 223.198 83.792C220.048 83.792 217.78 85.724 217.78 89.882V101.054H211.228V78.458H217.486V81.104ZM256.479 89.63V78.458H263.031V101.054H256.815V98.366C255.093 100.34 252.573 101.39 249.801 101.39C244.131 101.39 240.141 98.198 240.141 91.226V78.458H246.693V90.26C246.693 94.04 248.373 95.72 251.271 95.72C254.295 95.72 256.479 93.788 256.479 89.63ZM289.891 81.818C291.697 79.508 294.637 78.122 298.039 78.122C303.415 78.122 307.279 81.23 307.279 88.118V101.054H300.727V89.126C300.727 85.472 299.089 83.792 296.443 83.792C293.503 83.792 291.445 85.682 291.445 89.714V101.054H284.893V89.126C284.893 85.472 283.339 83.792 280.609 83.792C277.711 83.792 275.653 85.682 275.653 89.714V101.054H269.101V78.458H275.359V81.062C277.039 79.13 279.559 78.122 282.457 78.122C285.607 78.122 288.295 79.34 289.891 81.818ZM323.772 78.122C330.408 78.122 335.532 82.574 335.532 89.84C335.532 90.197 335.49 90.6594 335.45 91.0928C335.434 91.2712 335.418 91.4448 335.406 91.604H318.312C318.942 94.418 321.336 96.14 324.78 96.14C327.174 96.14 328.896 95.426 330.45 93.956L333.936 97.736C331.836 100.13 328.686 101.39 324.612 101.39C316.8 101.39 311.718 96.476 311.718 89.756C311.718 82.994 316.884 78.122 323.772 78.122ZM329.358 87.782C328.896 84.926 326.754 83.078 323.814 83.078C320.832 83.078 318.69 84.884 318.228 87.782H329.358ZM346.152 78.458V81.44C347.748 79.256 350.436 78.122 353.922 78.122V84.17C353.829 84.1628 353.739 84.1556 353.651 84.1486C353.23 84.1148 352.87 84.086 352.452 84.086C348.84 84.086 346.446 86.06 346.446 90.386V101.054H339.894V78.458H346.152ZM365.168 71.528C365.168 73.712 363.53 75.308 361.094 75.308C358.658 75.308 357.02 73.712 357.02 71.654C357.02 69.596 358.658 68 361.094 68C363.53 68 365.168 69.512 365.168 71.528ZM364.37 78.458V101.054H357.818V78.458H364.37ZM391.493 95.678C389.855 99.29 386.117 101.39 381.371 101.39C374.021 101.39 368.771 96.56 368.771 89.756C368.771 82.952 374.021 78.122 381.371 78.122C386.117 78.122 389.855 80.18 391.493 83.876L386.411 86.606C385.193 84.464 383.387 83.498 381.329 83.498C378.011 83.498 375.407 85.808 375.407 89.756C375.407 93.704 378.011 96.014 381.329 96.014C383.387 96.014 385.193 95.09 386.411 92.906L391.493 95.678ZM394.635 80.852C397.113 79.088 400.767 78.122 404.379 78.122C411.267 78.122 415.257 81.314 415.257 88.16V101.054H409.125V98.24C407.907 100.298 405.555 101.39 402.237 101.39C396.945 101.39 393.795 98.45 393.795 94.544C393.795 90.554 396.609 87.782 403.497 87.782H408.705C408.705 84.968 407.025 83.33 403.497 83.33C401.103 83.33 398.625 84.128 396.987 85.43L394.635 80.852ZM400.179 94.25C400.179 95.888 401.565 96.98 403.875 96.98C406.059 96.98 407.949 95.972 408.705 93.914V91.604H404.211C401.145 91.604 400.179 92.738 400.179 94.25ZM427.739 101.054H421.187V69.89H427.739V101.054ZM455.375 93.83L461.842 78.458H468.142L458.608 101.054H451.846L442.354 78.458H449.116L455.375 93.83ZM469.448 80.852C471.926 79.088 475.58 78.122 479.192 78.122C486.08 78.122 490.07 81.314 490.07 88.16V101.054H483.938V98.24C482.72 100.298 480.368 101.39 477.05 101.39C471.758 101.39 468.608 98.45 468.608 94.544C468.608 90.554 471.422 87.782 478.31 87.782H483.518C483.518 84.968 481.838 83.33 478.31 83.33C475.916 83.33 473.438 84.128 471.8 85.43L469.448 80.852ZM474.992 94.25C474.992 95.888 476.378 96.98 478.688 96.98C480.872 96.98 482.762 95.972 483.518 93.914V91.604H479.024C475.958 91.604 474.992 92.738 474.992 94.25ZM502.552 101.054H496V69.89H502.552V101.054ZM524.844 89.63V78.458H531.396V101.054H525.18V98.366C523.458 100.34 520.938 101.39 518.166 101.39C512.496 101.39 508.506 98.198 508.506 91.226V78.458H515.058V90.26C515.058 94.04 516.738 95.72 519.636 95.72C522.66 95.72 524.844 93.788 524.844 89.63ZM547.84 78.122C554.476 78.122 559.6 82.574 559.6 89.84C559.6 90.1973 559.558 90.6602 559.519 91.094C559.502 91.272 559.487 91.4451 559.474 91.604H542.38C543.01 94.418 545.404 96.14 548.848 96.14C551.242 96.14 552.964 95.426 554.518 93.956L558.004 97.736C555.904 100.13 552.754 101.39 548.68 101.39C540.868 101.39 535.786 96.476 535.786 89.756C535.786 82.994 540.952 78.122 547.84 78.122ZM553.426 87.782C552.964 84.926 550.822 83.078 547.882 83.078C544.9 83.078 542.758 84.884 542.296 87.782H553.426ZM570.515 97.274C570.515 99.668 568.709 101.39 566.441 101.39C564.173 101.39 562.367 99.668 562.367 97.274C562.367 94.838 564.173 93.242 566.441 93.242C568.709 93.242 570.515 94.838 570.515 97.274ZM16.758 191.054H9.954V167.198H0.546V161.654H26.166V167.198H16.758V191.054ZM35.9169 170.81C37.6809 169.046 40.2009 168.122 43.0989 168.122C48.4329 168.122 52.4649 171.23 52.4649 178.118V191.054H45.9129V179.126C45.9129 175.472 44.2329 173.792 41.3349 173.792C38.1849 173.792 35.9169 175.724 35.9169 179.882V191.054H29.3649V159.89H35.9169V170.81ZM69.024 168.122C75.66 168.122 80.784 172.574 80.784 179.84C80.784 180.197 80.7419 180.66 80.7024 181.093C80.6861 181.271 80.6703 181.445 80.6581 181.604H63.564C64.194 184.418 66.5881 186.14 70.0321 186.14C72.426 186.14 74.148 185.426 75.702 183.956L79.188 187.736C77.0881 190.13 73.938 191.39 69.864 191.39C62.052 191.39 56.97 186.476 56.97 179.756C56.97 172.994 62.136 168.122 69.024 168.122ZM74.61 177.782C74.148 174.926 72.0061 173.078 69.066 173.078C66.084 173.078 63.942 174.884 63.48 177.782H74.61ZM103.299 171.104C105.063 169.172 107.709 168.122 110.775 168.122C116.109 168.122 120.141 171.23 120.141 178.118V191.054H113.589V179.126C113.589 175.472 111.909 173.792 109.011 173.792C105.861 173.792 103.593 175.724 103.593 179.882V191.054H97.0407V168.458H103.299V171.104ZM142.292 179.63V168.458H148.844V191.054H142.628V188.366C140.906 190.34 138.386 191.39 135.614 191.39C129.944 191.39 125.954 188.198 125.954 181.226V168.458H132.506V180.26C132.506 184.04 134.186 185.72 137.084 185.72C140.108 185.72 142.292 183.788 142.292 179.63ZM175.704 171.818C177.51 169.508 180.45 168.122 183.852 168.122C189.228 168.122 193.092 171.23 193.092 178.118V191.054H186.54V179.126C186.54 175.472 184.902 173.792 182.256 173.792C179.316 173.792 177.258 175.682 177.258 179.714V191.054H170.706V179.126C170.706 175.472 169.152 173.792 166.422 173.792C163.524 173.792 161.466 175.682 161.466 179.714V191.054H154.914V168.458H161.172V171.062C162.852 169.13 165.372 168.122 168.27 168.122C171.42 168.122 174.108 169.34 175.704 171.818ZM205.516 170.852C207.197 169.004 209.507 168.122 212.32 168.122C218.663 168.122 223.577 172.658 223.577 179.756C223.577 186.854 218.663 191.39 212.32 191.39C209.296 191.39 206.861 190.424 205.223 188.45V191.054H198.964V159.89H205.516V170.852ZM205.432 179.756C205.432 183.662 207.911 186.014 211.186 186.014C214.462 186.014 216.941 183.662 216.941 179.756C216.941 175.85 214.462 173.498 211.186 173.498C207.911 173.498 205.432 175.85 205.432 179.756ZM238.337 168.122C244.973 168.122 250.097 172.574 250.097 179.84C250.097 180.197 250.054 180.659 250.015 181.093C249.999 181.271 249.983 181.445 249.971 181.604H232.877C233.507 184.418 235.901 186.14 239.345 186.14C241.739 186.14 243.461 185.426 245.015 183.956L248.501 187.736C246.401 190.13 243.251 191.39 239.177 191.39C231.365 191.39 226.283 186.476 226.283 179.756C226.283 172.994 231.449 168.122 238.337 168.122ZM243.923 177.782C243.461 174.926 241.319 173.078 238.379 173.078C235.397 173.078 233.255 174.884 232.793 177.782H243.923ZM260.717 168.458V171.44C262.313 169.256 265.001 168.122 268.487 168.122V174.17C268.393 174.163 268.303 174.156 268.215 174.149C267.794 174.115 267.434 174.086 267.017 174.086C263.405 174.086 261.011 176.06 261.011 180.386V191.054H254.459V168.458H260.717ZM290.734 184.208C290.734 188.408 286.828 191.39 280.066 191.39C276.245 191.39 272.38 190.34 270.28 188.954L272.465 184.25C274.48 185.552 277.547 186.434 280.319 186.434C283.342 186.434 284.477 185.636 284.477 184.376C284.477 182.934 282.399 182.63 279.864 182.259C275.903 181.68 270.827 180.937 270.827 175.43C270.827 171.146 274.69 168.122 281.285 168.122C284.392 168.122 287.836 168.836 289.979 170.096L287.794 174.758C285.569 173.498 283.342 173.078 281.285 173.078C278.345 173.078 277.085 174.002 277.085 175.178C277.085 176.713 279.237 177.048 281.833 177.453C285.774 178.067 290.734 178.84 290.734 184.208ZM323.136 170.852V159.89H329.688V191.054H323.43V188.45C321.792 190.424 319.398 191.39 316.374 191.39C309.99 191.39 305.076 186.854 305.076 179.756C305.076 172.658 309.99 168.122 316.374 168.122C319.146 168.122 321.498 169.004 323.136 170.852ZM311.712 179.756C311.712 183.662 314.232 186.014 317.508 186.014C320.742 186.014 323.262 183.662 323.262 179.756C323.262 175.85 320.742 173.498 317.508 173.498C314.232 173.498 311.712 175.85 311.712 179.756ZM358.894 179.756C358.894 186.56 353.686 191.39 346.504 191.39C339.322 191.39 334.072 186.56 334.072 179.756C334.072 172.952 339.322 168.122 346.504 168.122C353.686 168.122 358.894 172.952 358.894 179.756ZM340.708 179.756C340.708 183.662 343.228 186.014 346.504 186.014C349.78 186.014 352.258 183.662 352.258 179.756C352.258 175.85 349.78 173.498 346.504 173.498C343.228 173.498 340.708 175.85 340.708 179.756ZM381.426 171.104C383.19 169.172 385.836 168.122 388.902 168.122C394.236 168.122 398.268 171.23 398.268 178.118V191.054H391.716V179.126C391.716 175.472 390.036 173.792 387.138 173.792C383.988 173.792 381.72 175.724 381.72 179.882V191.054H375.168V168.458H381.426V171.104ZM427.595 179.756C427.595 186.56 422.387 191.39 415.205 191.39C408.023 191.39 402.773 186.56 402.773 179.756C402.773 172.952 408.023 168.122 415.205 168.122C422.387 168.122 427.595 172.952 427.595 179.756ZM409.409 179.756C409.409 183.662 411.929 186.014 415.205 186.014C418.481 186.014 420.959 183.662 420.959 179.756C420.959 175.85 418.481 173.498 415.205 173.498C411.929 173.498 409.409 175.85 409.409 179.756ZM442.138 186.182C443.104 186.182 444.07 185.888 444.784 185.342L446.548 189.962C445.204 190.928 443.23 191.39 441.214 191.39C435.88 191.39 432.772 188.66 432.772 183.284V174.002H429.286V168.962H432.772V163.46H439.324V168.962H444.952V174.002H439.324V183.2C439.324 185.132 440.374 186.182 442.138 186.182ZM468.673 191.054H462.121V159.89H468.673V191.054ZM482.104 161.528C482.104 163.712 480.466 165.308 478.03 165.308C475.594 165.308 473.956 163.712 473.956 161.654C473.956 159.596 475.594 158 478.03 158C480.466 158 482.104 159.512 482.104 161.528ZM497.76 168.122C504.396 168.122 509.52 172.574 509.52 179.84C509.52 180.197 509.478 180.659 509.439 181.093C509.422 181.271 509.407 181.445 509.394 181.604H492.3C492.93 184.418 495.324 186.14 498.768 186.14C501.162 186.14 502.884 185.426 504.438 183.956L507.924 187.736C505.824 190.13 502.674 191.39 498.6 191.39C490.788 191.39 485.706 186.476 485.706 179.756C485.706 172.994 490.872 168.122 497.76 168.122ZM503.346 177.782C502.884 174.926 500.742 173.078 497.802 173.078C494.82 173.078 492.678 174.884 492.216 177.782H503.346ZM481.306 191.054H474.754V168.458H481.306V191.054ZM520.434 187.274C520.434 189.668 518.628 191.39 516.36 191.39C514.092 191.39 512.286 189.668 512.286 187.274C512.286 184.838 514.092 183.242 516.36 183.242C518.628 183.242 520.434 184.838 520.434 187.274Z" fill="white"/>
</svg>
