<svg width="33" height="26" viewBox="0 0 33 26" fill="none" xmlns="http://www.w3.org/2000/svg">
<path d="M16.5 14.3281C17.2031 13.625 17.2031 12.4531 16.5 11.6719L5.875 1.04688C5.09375 0.34375 3.92188 0.34375 3.21875 1.04688L1.42188 2.84375C0.71875 3.625 0.71875 4.79688 1.42188 5.5L9 13.0781L1.42188 20.5781C0.71875 21.2812 0.71875 22.4531 1.42188 23.2344L3.21875 24.9531C3.92188 25.7344 5.09375 25.7344 5.875 24.9531L16.5 14.3281ZM31.5 11.6719L20.875 1.04688C20.0938 0.34375 18.9219 0.34375 18.2188 1.04688L16.4219 2.84375C15.7188 3.54688 15.7188 4.79688 16.4219 5.5L24 13L16.4219 20.5781C15.7188 21.2812 15.7188 22.4531 16.4219 23.2344L18.2188 24.9531C18.9219 25.7344 20.1719 25.7344 20.875 24.9531L31.5 14.3281C32.2031 13.625 32.2031 12.4531 31.5 11.6719Z" fill="black"/>
</svg>
