<svg width="201" height="162" viewBox="0 0 201 162" fill="none" xmlns="http://www.w3.org/2000/svg">
<path d="M180.688 102.875C180.688 102.25 181 101.625 181 101.312C181 90.0625 171.938 81.3125 161 81.3125C156.938 81.3125 153.188 82.25 150.062 84.4375C144.75 72.25 132.562 63.8125 118.5 63.8125C99.125 63.8125 83.5 79.4375 83.5 98.8125C83.5 99.75 83.5 100.375 83.5 101.312C68.1875 102.562 56 115.375 56 131.312C56 147.875 69.4375 161.312 86 161.312H171C187.562 161.312 201 147.875 201 131.312C201 117.875 192.25 106.938 180.688 102.875ZM46 96C32.5625 82.25 32.5625 60.0625 46 46.3125C59.75 32.875 81.9375 32.875 95.6875 46.3125C98.5 49.4375 101 52.875 102.562 56.625C105.688 55.375 108.812 54.75 112.25 54.125L121.625 26.625C122.875 22.875 119.125 19.125 115.375 20.375L88.1875 29.75L75.0625 3.8125C73.5 0.375 68.5 0.375 66.625 3.8125L53.8125 29.75L26.3125 20.375C22.5625 19.125 19.125 22.875 20.0625 26.625L29.4375 53.8125L3.5 66.9375C0.0625 68.5 0.0625 73.5 3.5 75.375L29.4375 88.1875L20.0625 115.688C18.8125 119.438 22.5625 122.875 26.3125 121.625L50.0625 113.812C51.9375 110.062 54.4375 106.312 57.25 103.5C53.1875 101.625 49.4375 99.125 46 96ZM44.75 71C44.75 83.8125 53.8125 94.4375 65.6875 96.9375C68.1875 95.375 71 94.125 73.8125 93.1875C75.375 79.4375 83.5 67.25 94.75 60.375C90.6875 51.3125 81.625 44.75 71 44.75C56.3125 44.75 44.75 56.625 44.75 71Z" fill="black"/>
</svg>
