<svg width="163" height="163" viewBox="0 0 163 163" fill="none" xmlns="http://www.w3.org/2000/svg">
<path d="M82 51C65.4375 51 52 64.75 52 81C52 97.5625 65.4375 111 82 111C98.25 111 112 97.5625 112 81C112 64.75 98.25 51 82 51ZM158.875 76.3125L129.188 61.625L139.812 30.0625C141.062 26 137 21.9375 132.938 23.1875L101.375 33.8125L86.6875 4.125C84.8125 0.0625 78.875 0.0625 77 4.125L62.3125 33.8125L30.75 23.1875C26.6875 21.9375 22.625 26 23.875 30.0625L34.5 61.625L4.8125 76.3125C0.75 78.1875 0.75 84.125 4.8125 86L34.5 100.688L23.875 132.25C22.625 136.312 26.6875 140.375 30.75 139.125L62.3125 128.5L77 158.188C78.875 162.25 84.8125 162.25 86.6875 158.188L101.375 128.5L132.938 139.125C137 140.375 141.062 136.312 139.812 132.25L129.188 100.688L158.875 86C162.938 84.125 162.938 78.1875 158.875 76.3125ZM110.125 109.438C94.5 125.062 69.1875 125.062 53.5625 109.438C37.9375 93.8125 37.9375 68.5 53.5625 52.875C69.1875 37.25 94.5 37.25 110.125 52.875C125.75 68.5 125.75 93.8125 110.125 109.438Z" fill="black"/>
</svg>
