<svg width="161" height="160" viewBox="0 0 161 160" fill="none" xmlns="http://www.w3.org/2000/svg">
<path d="M58.1875 115.938C56 114.375 52.875 115.312 51.625 117.812L31.625 152.812C30.0625 155 31 158.125 33.5 159.375C34.125 160 35.0625 160 36 160C37.5625 160 39.125 159.375 40.0625 157.5L60.0625 122.5C61.625 120.312 60.6875 117.188 58.1875 115.938ZM88.1875 115.938C86 114.375 82.875 115.312 81.625 117.812L61.625 152.812C60.0625 155 61 158.125 63.5 159.375C64.125 160 65.0625 160 66 160C67.5625 160 69.125 159.375 70.0625 157.5L90.0625 122.5C91.625 120.312 90.6875 117.188 88.1875 115.938ZM28.1875 115.938C26 114.375 22.875 115.312 21.625 117.812L1.625 152.812C0.0625 155 1 158.125 3.5 159.375C4.125 160 5.0625 160 6 160C7.5625 160 9.125 159.375 10.0625 157.5L30.0625 122.5C31.625 120.312 30.6875 117.188 28.1875 115.938ZM148.188 115.938C146 114.375 142.875 115.312 141.625 117.812L121.625 152.812C120.062 155 121 158.125 123.5 159.375C124.125 160 125.062 160 126 160C127.562 160 129.125 159.375 130.062 157.5L150.062 122.5C151.625 120.312 150.688 117.188 148.188 115.938ZM118.188 115.938C116 114.375 112.875 115.312 111.625 117.812L91.625 152.812C90.0625 155 91 158.125 93.5 159.375C94.125 160 95.0625 160 96 160C97.5625 160 99.125 159.375 100.062 157.5L120.062 122.5C121.625 120.312 120.688 117.188 118.188 115.938ZM131 40C130.688 40 130.375 40.3125 130.375 40.3125C130.688 38.4375 131 36.875 131 35C131 21.25 119.75 10 106 10C98.1875 10 91.3125 13.75 86.9375 19.0625C81 7.8125 69.4375 0 56 0C36.625 0 21 15.9375 21 35C21 37.5 21 39.6875 21.625 41.875C9.4375 45.625 1 56.875 1 70C1 86.5625 14.4375 100 31 100H131C147.562 100 161 86.5625 161 70C161 53.4375 147.562 40 131 40Z" fill="black"/>
</svg>
