<svg viewBox="0 0 19 13" fill="none" xmlns="http://www.w3.org/2000/svg">
<path d="M15.2728 5.60797C15.3822 5.30719 15.4642 5.00641 15.4642 4.65094C15.4642 3.20172 14.2885 2.02594 12.8392 2.02594C12.2924 2.02594 11.7728 2.19 11.3627 2.49078C10.6244 1.17828 9.20253 0.27594 7.58925 0.27594C5.15565 0.27594 3.21425 2.24469 3.21425 4.65094C3.21425 4.73297 3.21425 4.815 3.21425 4.89703C1.683 5.41656 0.589249 6.89313 0.589249 8.58844C0.589249 10.7759 2.33925 12.5259 4.52675 12.5259H14.5892C16.5033 12.5259 18.0892 10.9673 18.0892 9.02594C18.0892 7.35797 16.8861 5.9361 15.2728 5.60797Z" fill="black"/>
</svg>
