<svg width="14" height="14" viewBox="0 0 14 14" fill="none" xmlns="http://www.w3.org/2000/svg">
<path d="M6.125 8.66633V12.9508L6.72711 13.8537C6.85699 14.0484 7.14328 14.0484 7.27316 13.8537L7.875 12.9508V8.66633C7.5909 8.71883 7.29914 8.75 7 8.75C6.70086 8.75 6.4091 8.71883 6.125 8.66633ZM7 0C4.82535 0 3.0625 1.76285 3.0625 3.9375C3.0625 6.11215 4.82535 7.875 7 7.875C9.17465 7.875 10.9375 6.11215 10.9375 3.9375C10.9375 1.76285 9.17465 0 7 0ZM7 2.07812C5.97461 2.07812 5.14062 2.91211 5.14062 3.9375C5.14062 4.11852 4.99352 4.26562 4.8125 4.26562C4.63148 4.26562 4.48438 4.11852 4.48438 3.9375C4.48438 2.55035 5.61312 1.42187 7 1.42187C7.18102 1.42187 7.32812 1.56898 7.32812 1.75C7.32812 1.93102 7.18102 2.07812 7 2.07812Z" fill="#3F3F3F"/>
</svg>
